Coordinates
version=1
nRows=8
nColumns=40
inDegrees=yes

Units are S.I. units (second, meters, Newtons, ...)
Angles are in degrees.

endheader
time	pelvis_tilt	pelvis_list	pelvis_rotation	pelvis_tx	pelvis_ty	pelvis_tz	hip_flexion_r	hip_adduction_r	hip_rotation_r	knee_angle_r	knee_angle_r_beta	ankle_angle_r	subtalar_angle_r	mtp_angle_r	hip_flexion_l	hip_adduction_l	hip_rotation_l	knee_angle_l	knee_angle_l_beta	ankle_angle_l	subtalar_angle_l	mtp_angle_l	lumbar_extension	lumbar_bending	lumbar_rotation	arm_flex_r	arm_add_r	arm_rot_r	elbow_flex_r	pro_sup_r	wrist_flex_r	wrist_dev_r	arm_flex_l	arm_add_l	arm_rot_l	elbow_flex_l	pro_sup_l	wrist_flex_l	wrist_dev_l
     36.20250000	     -4.26441293	     -6.47540057	     -1.69977260	      1.05815893	      0.91610065	      0.47633623	     24.09304237	      3.60472919	    -15.24021216	     20.96704581	     20.96704581	      4.23401082	      0.18128166	     -3.14824099	      4.33407547	    -13.55352268	     -9.19199802	     45.91785093	     45.91785093	     12.12336528	    -16.94183633	     -1.33646449	    -10.69899851	      9.37635745	      2.12247798	     -8.35467160	    -11.12724426	    -19.61737792	     21.34338387	     47.38249692	      0.00000000	      0.00000000	     18.79231321	    -14.55460731	     -7.67602786	     83.80688724	     48.10554646	      0.00000000	      0.00000000
     36.21400000	     -4.09526848	     -6.62653514	     -1.21166776	      1.05790825	      0.91812976	      0.47795364	     22.95668171	      3.78139116	    -15.73948741	     20.43796095	     20.43796095	      4.82173679	      0.60075274	     -3.28848506	      6.48928680	    -14.26874405	     -8.35117653	     49.81046945	     49.81046945	     10.62831443	    -17.77069759	     -0.72825287	    -10.90699514	      9.56671974	      2.09592638	     -6.53142883	    -11.26339895	    -19.54487165	     22.20250256	     47.35317417	      0.00000000	      0.00000000	     17.44682216	    -13.88773388	     -7.12845854	     82.43953599	     48.03719324	      0.00000000	      0.00000000
     36.22550000	     -4.10157731	     -6.57661624	     -0.69385072	      1.05739999	      0.91996602	      0.47908453	     21.93898737	      3.64481668	    -16.67179580	     19.77861155	     19.77861155	      5.30438262	      1.86545342	     -3.80385008	      9.18956611	    -14.47414592	     -7.07291368	     53.97908669	     53.97908669	     11.84309383	    -17.83408036	      6.39657349	    -10.76323324	      9.63503046	      2.41275481	     -5.23558850	    -11.47023833	    -18.94977017	     23.63828943	     47.22355218	      0.00000000	      0.00000000	     17.17379970	    -12.90602267	     -6.32086217	     77.87000422	     47.90537955	      0.00000000	      0.00000000
     36.23700000	     -4.02756872	     -6.65670126	     -0.18974245	      1.05680423	      0.92170572	      0.48028356	     20.83164846	      3.75598565	    -17.31452733	     19.05229901	     19.05229901	      5.68250169	      2.56889188	     -4.15293358	     11.65664514	    -14.91874253	     -6.15213608	     57.45942423	     57.45942423	     11.93527487	    -18.09089384	      9.60070174	    -10.79523083	      9.78268696	      2.55890854	     -3.68101126	    -11.71973492	    -18.35167998	     25.28396355	     47.08540263	      0.00000000	      0.00000000	     16.32161997	    -12.28770571	     -5.29177488	     74.83977547	     47.78191306	      0.00000000	      0.00000000
     36.24850000	     -3.98388510	     -6.78908007	      0.30617717	      1.05609157	      0.92321359	      0.48147462	     19.78794036	      3.97360196	    -17.79378750	     18.34330221	     18.34330221	      6.07306430	      3.02537984	     -4.22522604	     14.06036106	    -15.44971335	     -5.40612506	     60.33604983	     60.33604983	     11.28845115	    -18.44089793	      9.79862220	    -10.84465959	      9.96595803	      2.52920159	     -1.67853928	    -11.96502644	    -18.24334427	     26.29204238	     47.04707629	      0.00000000	      0.00000000	     14.90267309	    -11.69820534	     -4.74236732	     73.08516569	     47.70336592	      0.00000000	      0.00000000
     36.26000000	     -3.97593288	     -6.92020458	      0.78974931	      1.05531840	      0.92461017	      0.48261895	     18.73175143	      4.20243041	    -18.41232559	     17.52166968	     17.52166968	      6.40040705	      3.70278902	     -4.35103351	     16.50812219	    -15.91846944	     -4.67216310	     62.79891970	     62.79891970	     11.06777628	    -18.63157261	     10.41244745	    -10.77748210	     10.12540288	      2.32024010	      0.46194976	    -12.17180648	    -18.03434072	     27.44710631	     46.99368619	      0.00000000	      0.00000000	     13.64801995	    -11.29836999	     -4.20733944	     70.22444539	     47.60629170	      0.00000000	      0.00000000
     36.27150000	     -3.87320490	     -6.85418755	      1.16484758	      1.05448015	      0.92607996	      0.48361740	     17.67538283	      4.19977170	    -18.94653743	     16.89891313	     16.89891313	      6.64847882	      4.58660119	     -4.88351161	     18.80258731	    -16.05244570	     -4.04070677	     64.86177348	     64.86177348	     11.85645030	    -18.66141517	     13.24747385	    -10.79825417	     10.06767648	      3.26244824	      1.92791577	    -12.69118605	    -17.05041260	     28.75001382	     46.85189770	      0.00000000	      0.00000000	     14.04481145	    -10.01304232	     -3.23749374	     64.34133189	     47.43764265	      0.00000000	      0.00000000
     36.28300000	     -3.79680931	     -6.91541185	      1.53244801	      1.05356698	      0.92732216	      0.48480795	     16.63847035	      4.43820236	    -19.19142209	     16.18907841	     16.18907841	      6.93017527	      4.91170884	     -4.92275762	     21.02798489	    -16.38311457	     -3.52749014	     66.30593986	     66.30593986	     11.88569087	    -18.75368033	     13.43836064	    -10.87059991	     10.08113834	      3.16145341	      4.18328613	    -12.90646049	    -16.80594818	     30.16846459	     46.78446073	      0.00000000	      0.00000000	     12.63229588	     -9.72384923	     -2.60220575	     61.87840630	     47.33901552	      0.00000000	      0.00000000
